<svg width="20" height="25" viewBox="0 0 20 25" fill="none" xmlns="http://www.w3.org/2000/svg">
<path id="Vector" d="M0 0.719727H13.0674L18.9474 6.5486V12.198H16.8421V9.06755H10.5263V2.80668H2.10526V21.5893H9.47368V23.6762H0V0.719727ZM12.6316 3.23868V6.9806H16.4063L12.6316 3.23868ZM11.5789 15.8502C11.5789 15.1583 11.8562 14.4948 12.3497 14.0055C12.8432 13.5163 13.5126 13.2415 14.2105 13.2415C14.9085 13.2415 15.5778 13.5163 16.0713 14.0055C16.5649 14.4948 16.8421 15.1583 16.8421 15.8502V20.5458H14.7368V15.8502C14.7368 15.7118 14.6814 15.5791 14.5827 15.4812C14.484 15.3834 14.3501 15.3284 14.2105 15.3284C14.0709 15.3284 13.9371 15.3834 13.8384 15.4812C13.7397 15.5791 13.6842 15.7118 13.6842 15.8502V20.5458C13.6842 21.0993 13.906 21.6301 14.3008 22.0215C14.6956 22.4129 15.2311 22.6328 15.7895 22.6328C16.3478 22.6328 16.8833 22.4129 17.2781 22.0215C17.6729 21.6301 17.8947 21.0993 17.8947 20.5458V16.3719H20V20.5458C20 21.6528 19.5564 22.7145 18.7668 23.4972C17.9771 24.28 16.9062 24.7197 15.7895 24.7197C14.6728 24.7197 13.6018 24.28 12.8122 23.4972C12.0226 22.7145 11.5789 21.6528 11.5789 20.5458V15.8502Z" fill="black"/>
</svg>
