<svg width="16" height="17" viewBox="0 0 16 17" fill="none" xmlns="http://www.w3.org/2000/svg">
<g id="bxs:up-arrow">
<path id="Vector" d="M14.0009 4.05299L2.00092 4.05299C1.87943 4.05337 1.76034 4.08688 1.65647 4.14991C1.5526 4.21294 1.46789 4.3031 1.41146 4.41069C1.35502 4.51828 1.329 4.63923 1.33618 4.76051C1.34337 4.88179 1.3835 4.99882 1.45225 5.09899L7.45225 13.7657C7.70092 14.125 8.29959 14.125 8.54892 13.7657L14.5489 5.09899C14.6184 4.99903 14.6591 4.88194 14.6667 4.76046C14.6743 4.63898 14.6484 4.51774 14.5919 4.40992C14.5354 4.3021 14.4505 4.21182 14.3463 4.14889C14.2421 4.08597 14.1226 4.0528 14.0009 4.05299Z" fill="#464545"/>
</g>
</svg>
