<svg width="43" height="43" viewBox="0 0 43 43" fill="none" xmlns="http://www.w3.org/2000/svg">
<circle cx="21.5" cy="21.5" r="21.5" fill="#E77C30"/>
<path d="M22.2071 22.7071C22.5976 22.3166 22.5976 21.6834 22.2071 21.2929L15.8431 14.9289C15.4526 14.5384 14.8195 14.5384 14.4289 14.9289C14.0384 15.3195 14.0384 15.9526 14.4289 16.3431L20.0858 22L14.4289 27.6569C14.0384 28.0474 14.0384 28.6805 14.4289 29.0711C14.8195 29.4616 15.4526 29.4616 15.8431 29.0711L22.2071 22.7071ZM20 23H21.5V21H20V23Z" fill="white"/>
<path d="M20.7929 21.2929C20.4024 21.6834 20.4024 22.3166 20.7929 22.7071L27.1569 29.0711C27.5474 29.4616 28.1805 29.4616 28.5711 29.0711C28.9616 28.6805 28.9616 28.0474 28.5711 27.6569L22.9142 22L28.5711 16.3431C28.9616 15.9526 28.9616 15.3195 28.5711 14.9289C28.1805 14.5384 27.5474 14.5384 27.1569 14.9289L20.7929 21.2929ZM23 21H21.5V23H23V21Z" fill="white"/>
</svg>
